<svg xmlns="http://www.w3.org/2000/svg" xmlns:xlink="http://www.w3.org/1999/xlink" width="86" height="82" viewBox="0 0 86 82">
    <defs>
        <linearGradient id="a" x1="-10.168%" x2="133.048%" y1="20.904%" y2="100%">
            <stop offset="0%" stop-color="#57C362"/>
            <stop offset="100%" stop-color="#2D6B32"/>
        </linearGradient>
        <path id="b" d="M0 .452h61.55V62H0z"/>
    </defs>
    <g fill="none" fill-rule="evenodd">
        <path fill="url(#a)" d="M42.727 24.098C19.129 24.098 0 18.704 0 12.048 0 5.393 19.129 0 42.727 0c23.598 0 42.727 5.393 42.727 12.048 0 6.656-19.129 12.05-42.727 12.05" transform="translate(0 57)"/>
        <path fill="#A2A8AF" d="M18.553 42.386c4.014-4.014 7.73-7.22 11.143-9.761-5.33-6.335-8.709-12.91-2.77-16.884C36.698 9.208 67.728 1.999 74.362 8.64c6.636 6.636-.568 37.665-7.098 47.435-3.977 5.943-10.551 2.566-16.888-2.768-2.54 3.413-5.744 7.125-9.76 11.138-7.984 7.986-13.897.636-18.298-3.76v-.005c-4.396-4.396-11.75-10.309-3.765-18.294"/>
        <path fill="#A2A8AF" d="M24.72 14.37c-.923 1.792-.802 4.928-.496 6.934.306 2.006 4.064-.726 4.708-3.114.646-2.386-3.49-5.216-4.212-3.82M16.72 42.37c-.923 1.792-.802 4.928-.496 6.934.306 2.006 4.064-.726 4.708-3.114.646-2.386-3.49-5.216-4.212-3.82"/>
        <g transform="matrix(-1 0 0 1 77 0)">
            <mask id="c" fill="#fff">
                <use xlink:href="#b"/>
            </mask>
            <path fill="#D9E0E3" d="M58.022 36.572c-3.984-3.984-7.674-7.167-11.062-9.69 5.291-6.289 8.646-12.816 2.75-16.761-9.7-6.486-40.505-13.642-47.09-7.05-6.59 6.59.563 37.391 7.046 47.09 3.947 5.9 10.474 2.547 16.765-2.748 2.521 3.388 5.702 7.073 9.688 11.058 7.927 7.927 13.797.63 18.166-3.734v-.004c4.364-4.364 11.664-10.234 3.737-18.161" mask="url(#c)"/>
        </g>
        <path fill="#FFFFFE" d="M51.426 6.402c9.124-1.785 18.163-2.26 21.232.95 2.736 2.857 2.873 10.706 1.448 19.092-2.798 16.462-39.589-16.731-22.68-20.042"/>
    </g>
</svg>
