<svg xmlns="http://www.w3.org/2000/svg" width="14" height="14" viewBox="0 0 14 14">
    <g fill="#000" fill-rule="nonzero" opacity=".7">
        <path d="M4.06 11.309H1.54a.14.14 0 0 1-.14-.14v-5.32a.14.14 0 0 1 .14-.14h2.52a.14.14 0 0 1 .14.14v5.32a.14.14 0 0 1-.14.14zM8.26 11.309H5.74a.14.14 0 0 1-.14-.14V.249a.14.14 0 0 1 .14-.14h2.52a.14.14 0 0 1 .14.14v10.92a.14.14 0 0 1-.14.14zM12.46 11.309H9.94a.14.14 0 0 1-.14-.14v-8.12a.14.14 0 0 1 .14-.14h2.52a.14.14 0 0 1 .14.14v8.12a.14.14 0 0 1-.14.14zM0 13.129v-.84a.14.14 0 0 1 .14-.14h13.72a.14.14 0 0 1 .14.14v.84a.14.14 0 0 1-.14.14H.14a.14.14 0 0 1-.14-.14z"/>
    </g>
</svg>
