<svg xmlns="http://www.w3.org/2000/svg" xmlns:xlink="http://www.w3.org/1999/xlink" width="86" height="83" viewBox="0 0 86 83">
    <defs>
        <linearGradient id="a" x1="-10.168%" x2="133.048%" y1="20.904%" y2="100%">
            <stop offset="0%" stop-color="#57C362"/>
            <stop offset="100%" stop-color="#2D6B32"/>
        </linearGradient>
        <path id="b" d="M0 .03h54.74v54.735H0z"/>
        <path id="d" d="M.098.23h22.84V23.07H.099z"/>
    </defs>
    <g fill="none" fill-rule="evenodd">
        <path fill="url(#a)" d="M42.727 82.098C19.129 82.098 0 76.704 0 70.048 0 63.393 19.129 58 42.727 58c23.598 0 42.727 5.393 42.727 12.048 0 6.656-19.129 12.05-42.727 12.05"/>
        <path fill="#DCE2E9" d="M65 56.728L59.727 62 44 46.27 49.27 41z"/>
        <g transform="translate(3)">
            <mask id="c" fill="#fff">
                <use xlink:href="#b"/>
            </mask>
            <path fill="#DCE2E9" d="M54.74 27.401c0 15.113-12.254 27.364-27.368 27.364C12.256 54.765 0 42.514 0 27.401 0 12.285 12.256.03 27.372.03 42.486.03 54.74 12.285 54.74 27.4" mask="url(#c)"/>
        </g>
        <path fill="#9C712A" d="M50.78 27.401c0 11.267-9.136 20.406-20.409 20.406-11.268 0-20.408-9.139-20.408-20.406 0-11.27 9.14-20.41 20.408-20.41 11.273 0 20.409 9.14 20.409 20.41"/>
        <path fill="#F7C03C" d="M30.372 45.819c-10.169 0-18.419-8.25-18.419-18.419 0-10.174 8.25-18.416 18.419-18.416 10.172 0 18.418 8.242 18.418 18.416 0 10.169-8.246 18.419-18.418 18.419"/>
        <path fill="#BF8A32" d="M13.834 29.288c0-10.176 8.251-18.418 18.424-18.418 4.603 0 8.811 1.692 12.043 4.487-3.379-3.905-8.363-6.373-13.929-6.373-10.169 0-18.42 8.242-18.42 18.417 0 5.563 2.472 10.546 6.375 13.925a18.322 18.322 0 0 1-4.493-12.038"/>
        <path fill="#BF8A32" d="M30.372 36.494c-5.017 0-9.095-4.073-9.095-9.093s4.078-9.093 9.095-9.093c5.018 0 9.093 4.073 9.093 9.093s-4.075 9.093-9.093 9.093"/>
        <path fill="#FBE853" d="M23.47 38.987a3.537 3.537 0 0 1-3.537-3.532 3.537 3.537 0 0 1 7.073 0 3.535 3.535 0 0 1-3.536 3.532M42.903 24.555c-1.744 1.744-5.359.964-8.07-1.748-2.713-2.716-3.498-6.327-1.754-8.071 1.742-1.746 5.359-.96 8.073 1.751 2.71 2.716 3.492 6.325 1.751 8.068"/>
        <g transform="translate(48.673 45.802)">
            <mask id="e" fill="#fff">
                <use xlink:href="#d"/>
            </mask>
            <path fill="#5A6271" d="M.098 8.229L13.537 21.67c2.001 2.003 5.417 1.835 7.626-.374 2.215-2.211 2.377-5.625.378-7.628L8.104.231.098 8.229z" mask="url(#e)"/>
        </g>
    </g>
</svg>
